<?xml version="1.0" encoding="utf-8"?>
<svg aria-hidden="true" role="img" class="iconify iconify--logos" width="31.88" height="32" preserveAspectRatio="xMidYMid meet" viewBox="0 0 256 257" xmlns="http://www.w3.org/2000/svg">
  <g id="tight-bounds" transform="matrix(1.875336, 0, 0, 1.911666, 1.295025, 0.519283)" style="">
    <svg viewBox="0 0 135 133.24581916963209" height="133.24581916963209" width="135">
      <g>
        <svg viewBox="0 0 629.7074653058628 212.14069339581405" height="133.24581916963209" width="395.52">
          <g>
            <svg viewBox="0 0 212.14069339581405 212.14069339581405" height="212.14069339581405" width="212.14069339581405">
              <g>
                <svg/>
              </g>
              <g id="icon-0">
                <svg viewBox="0 0 212.14069339581405 212.14069339581405" height="212.14069339581405" width="212.14069339581405">
                  <g>
                    <path d="M0 106.07c0-58.581 47.489-106.07 106.07-106.07 58.581 0 106.07 47.489 106.071 106.07 0 58.581-47.489 106.07-106.071 106.071-58.581 0-106.07-47.489-106.07-106.071zM106.07 207.93c56.255 0 101.859-45.604 101.86-101.86 0-56.255-45.604-101.859-101.86-101.859-56.255 0-101.859 45.604-101.859 101.859 0 56.255 45.604 101.859 101.859 101.86z" data-fill-palette-color="accent" fill="#755bb4" stroke="transparent"/>
                  </g>
                  <g transform="matrix(1,0,0,1,52.355492260212316,42.686818461427265)">
                    <svg viewBox="0 0 107.42970887538942 126.76705647295952" height="126.76705647295952" width="107.42970887538942">
                      <g>
                        <svg xmlns="http://www.w3.org/2000/svg" version="1.1" x="0" y="0" viewBox="7 2 50 59" style="enable-background:new 0 0 64 64;" height="126.76705647295952" width="107.42970887538942" class="icon-x-0" data-fill-palette-color="accent" id="x-0">
                          <g fill="#755bb4" data-fill-palette-color="accent">
                            <path d="M27.051 12.051l1.414 1.414C29.409 12.521 30.664 12 32 12s2.591 0.521 3.535 1.465l1.414-1.414C35.628 10.729 33.87 10 32 10S28.372 10.729 27.051 12.051z" fill="#755bb4" data-fill-palette-color="accent"/>
                            <path d="M39.778 9.222C37.701 7.145 34.938 6 32 6s-5.701 1.145-7.778 3.222l1.414 1.414C27.336 8.937 29.596 8 32 8s4.664 0.937 6.364 2.636L39.778 9.222z" fill="#755bb4" data-fill-palette-color="accent"/>
                            <path d="M32 4c3.473 0 6.737 1.353 9.192 3.808l1.414-1.414C39.773 3.561 36.007 2 32 2s-7.773 1.561-10.606 4.394l1.414 1.414C25.263 5.353 28.527 4 32 4z" fill="#755bb4" data-fill-palette-color="accent"/>
                            <path d="M27.424 34c0.619 0 1.122-0.503 1.122-1.121v-0.261L26.13 31.41l-0.02 0.057c-0.26 0.779-0.061 1.624 0.521 2.205C26.843 33.883 27.125 34 27.424 34z" fill="#755bb4" data-fill-palette-color="accent"/>
                            <path d="M38.662 25.542c-1.857-1.66-4.184-2.543-6.649-2.543-0.389 0-0.78 0.021-1.175 0.066-4.354 0.489-7.923 3.829-8.678 8.122-0.56 3.18 0.377 6.336 2.567 8.661L25 40.138V45h2v-4h2v4h2v-4h2v4h2v-4h2v4h2v-4.862l0.272-0.289C41.031 37.981 42 35.549 42 33 42 30.157 40.783 27.438 38.662 25.542zM30.546 32.879c0 1.721-1.4 3.121-3.122 3.121-0.832 0-1.616-0.324-2.206-0.913-1.121-1.121-1.505-2.75-1.004-4.253l0.748-2.244 5.584 2.792V32.879zM38.783 35.086C38.192 35.676 37.408 36 36.576 36c-1.722 0-3.122-1.4-3.122-3.121v-1.497l5.584-2.792 0.748 2.244C40.287 32.337 39.903 33.966 38.783 35.086z" fill="#755bb4" data-fill-palette-color="accent"/>
                            <path d="M7 52c0 1.654 1.346 3 3 3h44c1.654 0 3-1.346 3-3v-1H7V52z" fill="#755bb4" data-fill-palette-color="accent"/>
                            <path d="M54 17H35c0-1.654-1.346-3-3-3s-3 1.346-3 3H10c-1.654 0-3 1.346-3 3v29h50V20C57 18.346 55.654 17 54 17zM32 16c0.552 0 1 0.448 1 1s-0.448 1-1 1-1-0.448-1-1S31.448 16 32 16zM11 43H9v-4h2V43zM11 37H9v-4h2V37zM11 31H9v-4h2V31zM11 25H9v-4h2V25zM15 42h-2v-2h2V42zM15 36h-2v-2h2V36zM15 30h-2v-2h2V30zM15 24h-2v-2h2V24zM19 43h-2v-4h2V43zM19 37h-2v-4h2V37zM19 31h-2v-4h2V31zM19 25h-2v-4h2V25zM41 40.921V45c0 1.103-0.897 2-2 2H25c-1.103 0-2-0.897-2-2v-4.078c-2.433-2.758-3.456-6.407-2.811-10.08 0.908-5.161 5.195-9.176 10.426-9.765 3.417-0.388 6.838 0.7 9.38 2.974C42.54 26.326 44 29.588 44 33 44 35.927 42.938 38.724 41 40.921zM47 43h-2v-4h2V43zM47 37h-2v-4h2V37zM47 31h-2v-4h2V31zM47 25h-2v-4h2V25zM51 42h-2v-2h2V42zM51 36h-2v-2h2V36zM51 30h-2v-2h2V30zM51 24h-2v-2h2V24zM55 43h-2v-4h2V43zM55 37h-2v-4h2V37zM55 31h-2v-4h2V31zM55 25h-2v-4h2V25z" fill="#755bb4" data-fill-palette-color="accent"/>
                            <path d="M37.87 31.41l-2.416 1.208v0.261c0 0.618 0.503 1.121 1.122 1.121 0.299 0 0.581-0.117 0.794-0.329 0.58-0.58 0.779-1.425 0.52-2.204L37.87 31.41z" fill="#755bb4" data-fill-palette-color="accent"/>
                            <polygon points="44,57 20,57 20,59 16,59 16,61 20,61 44,61 48,61 48,59 44,59  " fill="#755bb4" data-fill-palette-color="accent"/>
                          </g>
                        </svg>
                      </g>
                    </svg>
                  </g>
                </svg>
              </g>
            </svg>
          </g>
        </svg>
      </g>
    </svg>
    <rect width="135" height="133.24581916963209" fill="none" stroke="none" visibility="hidden"/>
  </g>
</svg>