<svg xmlns="http://www.w3.org/2000/svg" version="1.1" xmlns:xlink="http://www.w3.org/1999/xlink" xmlns:svgjs="http://svgjs.dev/svgjs" width="1000" height="1000" viewBox="0 0 1000 1000"><rect width="1000" height="1000" fill="#000000"></rect><g transform="matrix(0.7,0,0,0.7,149.57575757575756,382.9668787779145)"><svg viewBox="0 0 396 133" data-background-color="#ffffff" preserveAspectRatio="xMidYMid meet" height="335" width="1000" xmlns="http://www.w3.org/2000/svg" xmlns:xlink="http://www.w3.org/1999/xlink"><defs></defs><g id="tight-bounds" transform="matrix(1,0,0,1,0.2400000000000091,-0.12300587404104135)"><svg viewBox="0 0 395.52 133.24581916963209" height="133.24581916963209" width="395.52"><g><svg viewBox="0 0 629.7074653058628 212.14069339581405" height="133.24581916963209" width="395.52"><g transform="matrix(1,0,0,1,234.18746530586276,62.95464323880675)"><svg viewBox="0 0 395.52000000000004 86.23140691820055" height="86.23140691820055" width="395.52000000000004"><g><svg viewBox="0 0 395.52000000000004 86.23140691820055" height="86.23140691820055" width="395.52000000000004"><g><svg viewBox="0 0 395.52000000000004 46.69422539785644" height="46.69422539785644" width="395.52000000000004"><g transform="matrix(1,0,0,1,0,0)"><svg width="395.52000000000004" viewBox="0 -36 307.8800048828125 36.349998474121094" height="46.69422539785644" data-palette-color="#755bb4"><path d="M26.95 0L25.2-5.35 13.4-5.35 11.65 0 0 0 12.95-35.4 25.75-35.4 38.65 0 26.95 0ZM16.1-13.7L22.5-13.7 19.3-23.55 16.1-13.7ZM70.15-35.4L83.7-35.4 83.7 0 72.65 0 72.65-17.65 67.2 0 57.7 0 52.25-17.65 52.25 0 41.15 0 41.15-35.4 54.75-35.4 62.55-14.15 70.15-35.4ZM86.7-35.4L116.5-35.4 116.5-26.6 107.1-26.6 107.1 0 96 0 96-26.6 86.7-26.6 86.7-35.4ZM119.49-35.4L130.59-35.4 130.59 0 119.49 0 119.49-35.4ZM149.44 0.35Q143.09 0.35 138.97-2.63 134.84-5.6 134.49-11.35L134.49-11.35 146.29-11.35Q146.54-8.3 148.99-8.3L148.99-8.3Q149.89-8.3 150.52-8.72 151.14-9.15 151.14-10.05L151.14-10.05Q151.14-11.3 149.79-12.08 148.44-12.85 145.59-13.85L145.59-13.85Q142.19-15.05 139.97-16.2 137.74-17.35 136.14-19.55 134.54-21.75 134.59-25.2L134.59-25.2Q134.59-28.65 136.37-31.08 138.14-33.5 141.22-34.75 144.29-36 148.14-36L148.14-36Q154.64-36 158.47-33 162.29-30 162.49-24.55L162.49-24.55 150.54-24.55Q150.49-26.05 149.79-26.7 149.09-27.35 148.09-27.35L148.09-27.35Q147.39-27.35 146.94-26.88 146.49-26.4 146.49-25.55L146.49-25.55Q146.49-24.35 147.82-23.58 149.14-22.8 152.04-21.7L152.04-21.7Q155.39-20.45 157.57-19.3 159.74-18.15 161.34-16.1 162.94-14.05 162.94-10.95L162.94-10.95Q162.94-7.7 161.34-5.13 159.74-2.55 156.69-1.1 153.64 0.35 149.44 0.35L149.44 0.35ZM195.79-23.25Q195.79-19.9 194.24-17.18 192.69-14.45 189.66-12.85 186.64-11.25 182.34-11.25L182.34-11.25 177.94-11.25 177.94 0 166.84 0 166.84-35.4 182.34-35.4Q188.84-35.4 192.31-32.1 195.79-28.8 195.79-23.25L195.79-23.25ZM181.09-20Q184.54-20 184.54-23.25L184.54-23.25Q184.54-26.5 181.09-26.5L181.09-26.5 177.94-26.5 177.94-20 181.09-20ZM210.39-35.4L210.39-8.4 221.09-8.4 221.09 0 199.29 0 199.29-35.4 210.39-35.4ZM241.83 0.35Q236.83 0.35 232.66-2 228.48-4.35 226.03-8.5 223.58-12.65 223.58-17.85L223.58-17.85Q223.58-23.05 226.03-27.2 228.48-31.35 232.66-33.68 236.83-36 241.83-36L241.83-36Q246.83-36 250.98-33.68 255.13-31.35 257.56-27.2 259.98-23.05 259.98-17.85L259.98-17.85Q259.98-12.65 257.56-8.5 255.13-4.35 250.96-2 246.78 0.35 241.83 0.35L241.83 0.35ZM241.83-10Q245.13-10 246.93-12.13 248.73-14.25 248.73-17.85L248.73-17.85Q248.73-21.5 246.93-23.63 245.13-25.75 241.83-25.75L241.83-25.75Q238.48-25.75 236.68-23.63 234.88-21.5 234.88-17.85L234.88-17.85Q234.88-14.25 236.68-12.13 238.48-10 241.83-10L241.83-10ZM263.98-35.4L275.08-35.4 275.08 0 263.98 0 263.98-35.4ZM278.08-35.4L307.88-35.4 307.88-26.6 298.48-26.6 298.48 0 287.38 0 287.38-26.6 278.08-26.6 278.08-35.4Z" opacity="1" transform="matrix(1,0,0,1,0,0)" fill="#ffffff" class="undefined-text-0" data-fill-palette-color="primary" id="text-0"></path></svg></g></svg></g><g transform="matrix(1,0,0,1,0,57.7176113528808)"><svg viewBox="0 0 232.20979200000005 28.51379556531974" height="28.51379556531974" width="232.20979200000005"><g transform="matrix(1,0,0,1,0,0)"><svg width="232.20979200000005" viewBox="3.5 -35.54999923706055 382.30999755859375 46.94999694824219" height="28.51379556531974" data-palette-color="#755bb4"><path d="M8.2-15.9L8.2 0 3.5 0 3.5-35 8.2-35 8.2-20.3 23.4-20.3 23.4-35 28.1-35 28.1 0 23.4 0 23.4-15.9 8.2-15.9ZM47.95-14.1L47.95-14.1 47.95-9.6Q46.05-11.05 43.3-11.05L43.3-11.05Q40.95-11.05 39.65-10.13 38.35-9.2 38.35-7.5L38.35-7.5Q38.35-4.2 43.25-4.2L43.25-4.2 49.85-4.2 49.85-13.75Q49.85-19.8 43.95-19.8L43.95-19.8 35.95-19.8 35.95-24 44.2-24Q49.05-24 51.65-21.6 54.25-19.2 54.25-14.7L54.25-14.7 54.25 0 43.1 0Q38.85 0 36.35-1.9 33.85-3.8 33.85-7.45 33.85-11.1 36.5-13 39.15-14.9 43.15-14.9L43.15-14.9Q45.4-14.9 47.95-14.1ZM76.15-5.25L76.15-5.25 79.15-2.3Q75.7 0.5 71.25 0.5L71.25 0.5Q65.7 0.5 62.35-3.08 59-6.65 59-12L59-12Q59-17.25 62.52-20.88 66.05-24.5 71.25-24.5L71.25-24.5Q75.7-24.5 79.15-21.7L79.15-21.7 76.2-18.7Q74.09-20.3 71.25-20.3L71.25-20.3Q67.8-20.3 65.77-18.03 63.75-15.75 63.75-12 63.75-8.25 65.77-5.98 67.8-3.7 71.25-3.7L71.25-3.7Q74.15-3.7 76.15-5.25ZM91.99-14.45L97.19-24 102.04-24 95.99-13.55Q102.14-11.9 102.14-3.6L102.14-3.6 102.14 0 97.74 0 97.74-3.65Q97.74-7 95.77-8.83 93.79-10.65 90.14-10.65L90.14-10.65Q88.99-10.65 87.79-10.5L87.79-10.5 87.79 0 83.39 0 83.39-35 87.79-35 87.79-14.45Q89.89-14.75 91.99-14.45L91.99-14.45ZM118.29-11.65L118.29-24 122.69-24 122.69-11.45Q122.69-7.4 123.94-5.8 125.19-4.2 128.54-4.2L128.54-4.2 133.79-4.2 133.79-24 138.19-24 138.19-1.2Q138.19 5.05 134.91 8.22 131.64 11.4 124.64 11.4L124.64 11.4 121.04 11.4 121.04 7.2 124.19 7.2Q133.34 7.2 133.79 0L133.79 0 129.59 0Q123.04 0 120.66-2.3 118.29-4.6 118.29-11.65L118.29-11.65ZM146.69-20.85L146.69-20.85Q150.19-24.5 155.44-24.5L155.44-24.5Q157.99-24.5 160.21-23.53 162.44-22.55 164.11-20.85 165.79-19.15 166.74-16.88 167.69-14.6 167.69-12L167.69-12Q167.69-9.4 166.76-7.13 165.84-4.85 164.19-3.15 162.54-1.45 160.29-0.48 158.04 0.5 155.44 0.5L155.44 0.5Q152.79 0.5 150.56-0.48 148.34-1.45 146.69-3.15 145.04-4.85 144.11-7.13 143.19-9.4 143.19-12L143.19-12Q143.19-17.3 146.69-20.85ZM155.44-20.3L155.44-20.3Q151.94-20.3 149.81-18 147.69-15.7 147.69-12 147.69-8.3 149.81-6 151.94-3.7 155.44-3.7L155.44-3.7Q158.99-3.7 161.09-6.03 163.19-8.35 163.19-12 163.19-15.65 161.09-17.98 158.99-20.3 155.44-20.3ZM192.83-24L192.83 0 184.18 0Q178.63 0 176.23-1.65L176.23-1.65Q174.08-3.1 173.51-5.13 172.93-7.15 172.93-10.45L172.93-10.45 172.93-24 177.33-24 177.33-10.5Q177.33-9.6 177.38-8.97 177.43-8.35 177.73-7.38 178.03-6.4 178.58-5.78 179.13-5.15 180.18-4.67 181.23-4.2 182.73-4.2L182.73-4.2 188.43-4.2 188.43-24 192.83-24ZM202.73 0L198.33 0 198.33-13.65Q198.33-19.4 200.48-21.6L200.48-21.6Q201.53-22.7 203.03-23.25 204.53-23.8 205.66-23.9 206.78-24 208.73-24L208.73-24 213.13-24 213.13-19.8 207.83-19.8Q206.83-19.8 206.28-19.75 205.73-19.7 204.98-19.4 204.23-19.1 203.68-18.45L203.68-18.45Q202.73-17.25 202.73-13.65L202.73-13.65 202.73 0ZM235.83-24L244.68-24 244.68-19.8 235.83-19.8Q234.38-19.8 233.33-19.25 232.28-18.7 232.28-17.7L232.28-17.7Q232.28-17.1 232.53-16.63 232.78-16.15 233.1-15.85 233.43-15.55 234.1-15.23 234.78-14.9 235.15-14.78 235.53-14.65 238.33-13.75 241.13-12.85 242.48-12.25 243.83-11.65 244.55-10.63 245.28-9.6 245.48-8.63 245.68-7.65 245.68-6.7L245.68-6.7Q245.68 0 236.48 0L236.48 0 227.83 0 227.83-4.2 236.48-4.2Q241.18-4.2 241.18-6.7L241.18-6.7Q241.18-7.9 239.8-8.7 238.43-9.5 236.45-10.05 234.48-10.6 232.5-11.33 230.53-12.05 229.15-13.68 227.78-15.3 227.78-17.7L227.78-17.7Q227.78-20.75 230.13-22.38 232.48-24 235.83-24L235.83-24ZM249.92-11.65L249.92-24 254.32-24 254.32-11.45Q254.32-7.4 255.57-5.8 256.82-4.2 260.17-4.2L260.17-4.2 265.42-4.2 265.42-24 269.82-24 269.82-1.2Q269.82 5.05 266.55 8.22 263.27 11.4 256.27 11.4L256.27 11.4 252.67 11.4 252.67 7.2 255.82 7.2Q264.97 7.2 265.42 0L265.42 0 261.22 0Q254.67 0 252.3-2.3 249.92-4.6 249.92-11.65L249.92-11.65ZM283.37-24L292.22-24 292.22-19.8 283.37-19.8Q281.92-19.8 280.87-19.25 279.82-18.7 279.82-17.7L279.82-17.7Q279.82-17.1 280.07-16.63 280.32-16.15 280.65-15.85 280.97-15.55 281.65-15.23 282.32-14.9 282.7-14.78 283.07-14.65 285.87-13.75 288.67-12.85 290.02-12.25 291.37-11.65 292.1-10.63 292.82-9.6 293.02-8.63 293.22-7.65 293.22-6.7L293.22-6.7Q293.22 0 284.02 0L284.02 0 275.37 0 275.37-4.2 284.02-4.2Q288.72-4.2 288.72-6.7L288.72-6.7Q288.72-7.9 287.35-8.7 285.97-9.5 284-10.05 282.02-10.6 280.05-11.33 278.07-12.05 276.7-13.68 275.32-15.3 275.32-17.7L275.32-17.7Q275.32-20.75 277.67-22.38 280.02-24 283.37-24L283.37-24ZM300.17-19.8L295.72-19.8 304.67-28.75 304.67-24 311.42-24 311.42-19.8 304.67-19.8 304.67-9.5Q304.67-7.75 305.24-6.6 305.82-5.45 306.92-4.98 308.02-4.5 308.99-4.35 309.97-4.2 311.42-4.2L311.42-4.2 311.42 0Q305.67 0 302.92-2.2 300.17-4.4 300.17-9.5L300.17-9.5 300.17-19.8ZM327.92-24.5L327.92-24.5Q336.42-24.15 336.42-17.45L336.42-17.45Q336.42-9.1 325.47-9.1L325.47-9.1 323.42-9.1 323.42-12.95 325.81-12.95Q329.17-12.95 330.47-13.98 331.77-15 331.77-17.4L331.77-17.4Q331.77-18.95 330.62-19.73 329.47-20.5 327.67-20.5L327.67-20.5Q324.12-20.5 322.09-18 320.06-15.5 320.06-12L320.06-12Q320.06-8.3 322.24-6 324.42-3.7 327.92-3.7L327.92-3.7Q331.06-3.7 333.06-5.25L333.06-5.25 336.06-2.3Q332.62 0.5 327.92 0.5L327.92 0.5Q322.22 0.5 318.81-2.85 315.42-6.2 315.42-11.5L315.42-11.5Q315.42-17.4 318.77-21.05 322.12-24.7 327.92-24.5ZM341.66 0L341.66-24 363.71-24Q367.26-24 369.36-22.65L369.36-22.65Q371.51-21.3 372.19-19.15 372.86-17 372.86-14L372.86-14 372.86 0 368.46 0 368.46-14Q368.46-17.9 366.11-19.15L366.11-19.15Q364.91-19.8 361.26-19.8L361.26-19.8 359.21-19.8 359.21 0 354.81 0 354.81-19.8 346.06-19.8 346.06 0 341.66 0ZM380.51-0.4L380.51-0.4Q379.61-1.3 379.61-2.6L379.61-2.6Q379.61-3.9 380.51-4.8 381.41-5.7 382.71-5.7L382.71-5.7Q384.01-5.7 384.91-4.8 385.81-3.9 385.81-2.6L385.81-2.6Q385.81-1.3 384.91-0.4 384.01 0.5 382.71 0.5L382.71 0.5Q381.41 0.5 380.51-0.4ZM379.86-32.95L379.86-32.95Q379.86-35.55 382.71-35.55 385.56-35.55 385.56-32.95L385.56-32.95Q385.56-32.65 385.41-29.93 385.26-27.2 385.09-21.65 384.91-16.1 384.91-9.05L384.91-9.05 380.71-9.05Q380.71-16.1 380.49-21.65 380.26-27.2 380.06-29.93 379.86-32.65 379.86-32.95Z" opacity="1" transform="matrix(1,0,0,1,0,0)" fill="#ffffff" class="undefined-text-1" data-fill-palette-color="secondary" id="text-1"></path></svg></g></svg></g></svg></g></svg></g><g><svg viewBox="0 0 212.14069339581405 212.14069339581405" height="212.14069339581405" width="212.14069339581405"><g><svg></svg></g><g id="icon-0"><svg viewBox="0 0 212.14069339581405 212.14069339581405" height="212.14069339581405" width="212.14069339581405"><g><path d="M0 106.07c0-58.581 47.489-106.07 106.07-106.07 58.581 0 106.07 47.489 106.071 106.07 0 58.581-47.489 106.07-106.071 106.071-58.581 0-106.07-47.489-106.07-106.071zM106.07 207.93c56.255 0 101.859-45.604 101.86-101.86 0-56.255-45.604-101.859-101.86-101.859-56.255 0-101.859 45.604-101.859 101.859 0 56.255 45.604 101.859 101.859 101.86z" data-fill-palette-color="accent" fill="#ffffff" stroke="transparent"></path></g><g transform="matrix(1,0,0,1,52.355492260212316,42.686818461427265)"><svg viewBox="0 0 107.42970887538942 126.76705647295952" height="126.76705647295952" width="107.42970887538942"><g><svg xmlns="http://www.w3.org/2000/svg" xmlns:xlink="http://www.w3.org/1999/xlink" version="1.1" x="0" y="0" viewBox="7 2 50 59" style="enable-background:new 0 0 64 64;" xml:space="preserve" height="126.76705647295952" width="107.42970887538942" class="icon-x-0" data-fill-palette-color="accent" id="x-0"><g fill="#755bb4" data-fill-palette-color="accent"><path d="M27.051 12.051l1.414 1.414C29.409 12.521 30.664 12 32 12s2.591 0.521 3.535 1.465l1.414-1.414C35.628 10.729 33.87 10 32 10S28.372 10.729 27.051 12.051z" fill="#ffffff" data-fill-palette-color="accent"></path><path d="M39.778 9.222C37.701 7.145 34.938 6 32 6s-5.701 1.145-7.778 3.222l1.414 1.414C27.336 8.937 29.596 8 32 8s4.664 0.937 6.364 2.636L39.778 9.222z" fill="#ffffff" data-fill-palette-color="accent"></path><path d="M32 4c3.473 0 6.737 1.353 9.192 3.808l1.414-1.414C39.773 3.561 36.007 2 32 2s-7.773 1.561-10.606 4.394l1.414 1.414C25.263 5.353 28.527 4 32 4z" fill="#ffffff" data-fill-palette-color="accent"></path><path d="M27.424 34c0.619 0 1.122-0.503 1.122-1.121v-0.261L26.13 31.41l-0.02 0.057c-0.26 0.779-0.061 1.624 0.521 2.205C26.843 33.883 27.125 34 27.424 34z" fill="#ffffff" data-fill-palette-color="accent"></path><path d="M38.662 25.542c-1.857-1.66-4.184-2.543-6.649-2.543-0.389 0-0.78 0.021-1.175 0.066-4.354 0.489-7.923 3.829-8.678 8.122-0.56 3.18 0.377 6.336 2.567 8.661L25 40.138V45h2v-4h2v4h2v-4h2v4h2v-4h2v4h2v-4.862l0.272-0.289C41.031 37.981 42 35.549 42 33 42 30.157 40.783 27.438 38.662 25.542zM30.546 32.879c0 1.721-1.4 3.121-3.122 3.121-0.832 0-1.616-0.324-2.206-0.913-1.121-1.121-1.505-2.75-1.004-4.253l0.748-2.244 5.584 2.792V32.879zM38.783 35.086C38.192 35.676 37.408 36 36.576 36c-1.722 0-3.122-1.4-3.122-3.121v-1.497l5.584-2.792 0.748 2.244C40.287 32.337 39.903 33.966 38.783 35.086z" fill="#ffffff" data-fill-palette-color="accent"></path><path d="M7 52c0 1.654 1.346 3 3 3h44c1.654 0 3-1.346 3-3v-1H7V52z" fill="#ffffff" data-fill-palette-color="accent"></path><path d="M54 17H35c0-1.654-1.346-3-3-3s-3 1.346-3 3H10c-1.654 0-3 1.346-3 3v29h50V20C57 18.346 55.654 17 54 17zM32 16c0.552 0 1 0.448 1 1s-0.448 1-1 1-1-0.448-1-1S31.448 16 32 16zM11 43H9v-4h2V43zM11 37H9v-4h2V37zM11 31H9v-4h2V31zM11 25H9v-4h2V25zM15 42h-2v-2h2V42zM15 36h-2v-2h2V36zM15 30h-2v-2h2V30zM15 24h-2v-2h2V24zM19 43h-2v-4h2V43zM19 37h-2v-4h2V37zM19 31h-2v-4h2V31zM19 25h-2v-4h2V25zM41 40.921V45c0 1.103-0.897 2-2 2H25c-1.103 0-2-0.897-2-2v-4.078c-2.433-2.758-3.456-6.407-2.811-10.08 0.908-5.161 5.195-9.176 10.426-9.765 3.417-0.388 6.838 0.7 9.38 2.974C42.54 26.326 44 29.588 44 33 44 35.927 42.938 38.724 41 40.921zM47 43h-2v-4h2V43zM47 37h-2v-4h2V37zM47 31h-2v-4h2V31zM47 25h-2v-4h2V25zM51 42h-2v-2h2V42zM51 36h-2v-2h2V36zM51 30h-2v-2h2V30zM51 24h-2v-2h2V24zM55 43h-2v-4h2V43zM55 37h-2v-4h2V37zM55 31h-2v-4h2V31zM55 25h-2v-4h2V25z" fill="#ffffff" data-fill-palette-color="accent"></path><path d="M37.87 31.41l-2.416 1.208v0.261c0 0.618 0.503 1.121 1.122 1.121 0.299 0 0.581-0.117 0.794-0.329 0.58-0.58 0.779-1.425 0.52-2.204L37.87 31.41z" fill="#ffffff" data-fill-palette-color="accent"></path><polygon points="44,57 20,57 20,59 16,59 16,61 20,61 44,61 48,61 48,59 44,59  " fill="#ffffff" data-fill-palette-color="accent"></polygon></g></svg></g></svg></g></svg></g></svg></g></svg></g></svg><rect width="395.52" height="133.24581916963209" fill="none" stroke="none" visibility="hidden"></rect></g></svg></g></svg>